# xmcd CD database file
#
# Track frame offsets:
#	150
#	11694
#	21771
#	40191
#	57571
#	77509
#	95032
#	109337
#	123037
#	138529
#	155639
#	172500
#	187651
#	210735
#	224653
#	238820
#
# Disc length: 3392 seconds
#
# Revision: 0
# Processed by: cddbd v1.5.2PL0 Copyright (c) Steve Scherf et al.
# Submitted via: CDex 1.70beta2
#
DISCID=d80d3e10
DTITLE=diverse - Rendevous Jazz Woman CD1
DYEAR=2008
DGENRE=Jazz
TTITLE0=Julie London: Come On-A My House
TTITLE1=Carmen Mcray with the Dave Brubeck Quartett: Take Five
TTITLE2=Eliane Elias: Oye Como Va
TTITLE3=Coralie Clement: Samba de Mon Coeur Qui Bat
TTITLE4=Wanda Sa: It's Too Late
TTITLE5=Yvonne Sanchez: Rainbow
TTITLE6=Silvana Malta: Samba Rosgado
TTITLE7=Chiara Civello: Without Him (Her)
TTITLE8=Casandra Mckinley: I Want You
TTITLE9=Luciana Souza: God Only Knows
TTITLE10=Beady Belle: When My Anger Starts To Cry
TTITLE11=Caroline Henderson: I'm A Fool To Want You
TTITLE12=Erin Boheme: Let's Do It
TTITLE13=Rigmor Gustafsson: Don't Do It In Here
TTITLE14=Shirley Horn: Hit The Road Jack
TTITLE15=Club Des Belugas: It' a Beautiful Day
EXTD=YEAR: 2008
EXTT0=
EXTT1=
EXTT2=
EXTT3=
EXTT4=
EXTT5=
EXTT6=
EXTT7=
EXTT8=
EXTT9=
EXTT10=
EXTT11=
EXTT12=
EXTT13=
EXTT14=
EXTT15=
PLAYORDER=
